<svg width="644" height="762" viewBox="0 0 644 762" fill="none" xmlns="http://www.w3.org/2000/svg">
<path d="M27.4493 69.3493C17.8758 58.4988 26.2854 20.4531 26.2854 20.4531L50.4042 5.46414L52.1888 77.9545L27.4493 69.3493Z" fill="white"/>
<path d="M55.2751 82.1944L53.2578 0.179138L23.6359 18.5839L23.3673 19.8081C22.472 23.8569 14.9278 59.6692 25.2116 71.3259L25.7309 71.9111L55.2751 82.1944ZM47.5459 10.761L49.0977 73.7265L29.2344 66.8113C23.0987 58.4868 26.6918 33.1011 28.93 22.3282L47.5459 10.761Z" fill="#ED6E90"/>
<path d="M52.1828 77.9665C52.1828 77.9665 30.4692 53.5482 22.1312 77.9665C-40.1327 260.037 79.5665 320.095 184.344 320.095C204.828 320.095 194.754 262.354 181.659 262.432C113.086 262.844 41.2843 212.127 103.536 97.1296" fill="white"/>
<path d="M184.345 323.081C189.018 323.081 192.832 320.74 195.375 316.315C202.041 304.724 198.836 279.481 191.543 266.947C188.648 261.966 185.324 259.44 181.689 259.44C181.313 259.434 181.104 259.44 180.817 259.44C142.434 259.44 108.998 243.358 93.402 217.346C75.6754 187.78 80.0981 146.701 106.163 98.5449L100.916 95.6964C66.645 159.014 75.1323 198.463 88.2869 220.409C104.951 248.213 140.357 265.406 180.817 265.406C181.11 265.406 181.492 265.316 181.689 265.406C182.679 265.406 184.44 266.594 186.386 269.95C192.707 280.795 195.691 303.786 190.206 313.335C188.732 315.909 186.863 317.103 184.351 317.103C117.085 317.103 61.7508 293.634 32.5169 252.71C2.46527 210.64 -0.0773773 152.171 24.9607 78.9279C26.7214 73.7743 29.1626 70.8482 32.2244 70.2331C38.5153 68.9074 47.1696 76.8139 49.9689 79.949L54.4214 75.9779C53.1621 74.5566 41.8218 62.2191 31.0486 64.3808C25.7605 65.4438 21.8153 69.6897 19.3144 76.993C-6.38612 152.165 -3.58089 212.455 27.6585 256.186C58.0264 298.698 115.133 323.081 184.345 323.081Z" fill="#ED6E90"/>
<path d="M605.306 595.264L630.32 585.853C630.32 585.853 654.266 537.936 630.32 513.984H599.66L605.306 595.264Z" fill="white"/>
<path d="M602.602 599.469L632.457 588.236L632.982 587.185C633.997 585.148 657.602 537.046 632.421 511.87L631.55 510.998H596.455L602.602 599.469ZM628.136 583.482L607.998 591.06L602.853 516.97H629.049C647.999 537.506 631.293 576.627 628.136 583.482Z" fill="#ED6E90"/>
<path d="M196.92 410.96C165.86 231.642 163.401 70.7706 374.98 57.2566C507.929 48.7708 557.635 187.129 503.071 370.639C455.185 531.702 416.772 660.004 334.901 664.447C257.62 668.639 226.871 583.876 196.92 410.96Z" fill="#ED6E90"/>
<path d="M443.558 292.332C485.129 229.014 470.9 133.025 346.474 137.886C250.774 141.619 222.991 166.676 235.74 247.694C246.268 314.631 296.541 321.606 329.828 325.547C363.114 329.476 420.932 326.783 443.558 292.332Z" fill="white"/>
<path d="M548.903 499.604C577.636 418.144 558.477 375.028 510.591 351.07C468.406 329.966 477.066 307.942 518.112 307.387C518.112 307.387 587.215 293.574 620.735 360.654C654.26 427.734 630.314 513.984 630.314 513.984C620.735 537.942 599.654 513.984 599.654 513.984" fill="white"/>
<path d="M618.15 527.611C618.92 527.611 619.696 527.551 620.472 527.42C625.951 526.476 630.195 522.326 633.09 515.094C633.436 513.906 657.059 426.648 623.409 359.317C589.263 290.989 518.243 304.323 517.527 304.455C496.35 304.694 482.545 310.755 480.193 321.014C477.788 331.536 488.108 343.157 509.26 353.733C560.249 379.238 571.954 425.274 546.092 498.607L551.72 500.589C578.782 423.871 566.134 375.512 511.928 348.395C490.841 337.843 484.712 328.019 486.013 322.346C487.624 315.311 500.242 310.612 518.153 310.367C521.43 309.77 585.992 297.802 618.067 361.986C650.673 427.233 627.676 512.33 627.437 513.178C625.474 518.038 622.752 520.959 619.451 521.526C612.904 522.643 604.554 515.029 601.892 512.001L597.41 515.942C597.863 516.462 607.801 527.611 618.15 527.611Z" fill="#ED6E90"/>
<path d="M524.963 557.105C534.537 528.357 548.909 513.972 568.062 523.562C587.221 533.141 592.008 552.304 577.642 581.064L601.581 595.432C601.581 595.432 644.686 528.357 582.428 504.399C520.17 480.441 501.017 542.731 501.017 542.731L524.963 557.105Z" fill="white"/>
<path d="M602.525 599.48L604.089 597.05C604.996 595.641 626.172 562.181 616.664 533.105C612.015 518.886 600.86 508.299 583.497 501.616C573.697 497.842 564.296 495.937 555.564 495.937C512.776 495.937 498.302 541.4 498.159 541.854L497.473 544.093L526.611 561.584L527.787 558.055C533.021 542.331 542.284 523.592 556.687 523.592C559.844 523.592 563.216 524.476 566.72 526.232C575.595 530.663 580.895 537.208 582.483 545.669C584.202 554.842 581.671 566.302 574.962 579.726L573.727 582.198L602.525 599.48ZM555.564 501.903C563.562 501.903 572.241 503.677 581.355 507.188C596.962 513.195 606.93 522.535 610.994 534.956C618.234 557.099 605.097 583.261 600.543 591.323L581.516 579.905C587.908 566.332 590.206 554.448 588.356 544.565C586.404 534.168 580.024 526.202 569.394 520.887C565.054 518.719 560.781 517.614 556.692 517.614C542.953 517.614 531.738 529.397 523.346 552.65L504.629 541.412C507.906 532.741 521.896 501.903 555.564 501.903Z" fill="#ED6E90"/>
<path d="M398.055 248.058C398.055 240.116 404.489 233.684 412.421 233.684C420.359 233.684 426.787 240.116 426.787 248.058C426.787 255.994 420.359 262.426 412.421 262.426C404.489 262.426 398.055 255.994 398.055 248.058Z" fill="#ED6E90"/>
<path d="M254.391 209.726C254.391 201.784 260.826 195.352 268.752 195.352C276.684 195.352 283.118 201.784 283.118 209.726C283.118 217.662 276.684 224.1 268.752 224.1C260.826 224.1 254.391 217.662 254.391 209.726Z" fill="#ED6E90"/>
<path d="M342.983 280.891C348.33 280.891 352.753 279.171 356.125 275.779C362.607 269.264 362.631 258.909 362.631 258.473L356.663 258.497C356.663 259.166 356.507 274.925 342.983 274.925C339.228 274.925 336.31 273.826 334.066 271.569C329.392 266.863 329.303 258.586 329.303 258.503L323.334 258.467C323.334 258.903 323.352 269.258 329.834 275.773C333.212 279.171 337.635 280.891 342.983 280.891Z" fill="#ED6E90"/>
<path d="M132.764 38.7145C124.54 67.8803 110.854 82.8991 91.2709 74.2282C71.7 65.5513 66.012 46.627 79.0294 17.2344L54.439 3.99512C54.439 3.99512 14.5214 73.016 77.8178 94.0423C141.12 115.075 157.355 51.9538 157.355 51.9538L132.764 38.7145Z" fill="white"/>
<path d="M102.14 101.322C147.214 101.322 160.118 53.1839 160.243 52.7002L160.828 50.431L130.902 34.3253L129.887 37.9083C125.286 54.229 116.679 73.6907 101.805 73.6907C98.8928 73.6907 95.7534 72.9562 92.4766 71.5051C83.4104 67.4861 77.806 61.1979 75.8363 52.8196C73.6936 43.7367 75.6871 32.1695 81.7572 18.4466L82.8792 15.9205L53.3051 0L51.8607 2.50811C51.0191 3.95326 31.4304 38.3681 42.2871 66.9725C47.5932 80.9583 59.2319 91.0146 76.8809 96.8848C85.7441 99.8288 94.2493 101.322 102.14 101.322ZM153.803 53.4287C150.867 62.4878 137.754 95.35 102.146 95.35C94.8939 95.35 87.0273 93.9646 78.7669 91.2176C62.9025 85.9446 52.5053 77.0766 47.8618 64.8586C39.5954 43.0798 51.4966 16.3266 55.6746 8.05581L75.2097 18.572C69.462 32.4263 67.7132 44.3995 70.023 54.1871C72.4581 64.4823 79.1966 72.144 90.0594 76.9572C94.1061 78.7487 98.0572 79.6564 101.811 79.6564C116.07 79.6564 127.082 67.3547 134.591 43.0798L153.803 53.4287Z" fill="#ED6E90"/>
<path d="M184.344 748.468C184.344 740.998 251.162 734.93 333.6 734.93C416.026 734.93 482.849 740.998 482.849 748.468C482.849 755.939 416.026 762 333.6 762C251.162 762 184.344 755.939 184.344 748.468Z" fill="#ED6E90"/>
<path d="M612.54 484.495C620.979 484.495 629.646 483.152 638.002 479.694L635.722 474.176C602.017 488.126 560.512 463.547 560.1 463.296L557.02 468.414C558.411 469.25 584.112 484.495 612.54 484.495Z" fill="#ED6E90"/>
<path d="M595.219 448.558C607.031 448.558 621.755 446.85 639.428 441.75L637.775 436.011C587.908 450.391 562.464 436.435 562.213 436.292L559.235 441.463C559.969 441.893 571.9 448.558 595.219 448.558Z" fill="#ED6E90"/>
<path d="M561.121 418.401C563.329 418.377 615.488 417.595 635.262 397.81L631.042 393.588C612.987 411.653 561.574 412.423 561.055 412.429L561.121 418.401Z" fill="#ED6E90"/>
<path d="M507.917 352.39L513.271 349.75C512.823 348.842 502.551 327.189 520.224 309.501L516.004 305.279C495.252 326.043 507.786 352.127 507.917 352.39Z" fill="#ED6E90"/>
<path d="M523.692 360.66H529.661C529.661 344.525 533.546 326.204 562.357 312.642L559.814 307.244C527.799 322.31 523.692 343.701 523.692 360.66Z" fill="#ED6E90"/>
<path d="M545.99 378.534C548.282 376.235 550.7 373.44 553.493 370.203C563.168 358.988 576.418 343.641 599.027 332.546L596.401 327.183C572.7 338.81 558.99 354.695 548.981 366.298C546.259 369.451 543.913 372.168 541.777 374.312L545.99 378.534Z" fill="#ED6E90"/>
<path d="M557.217 398.193C557.599 397.942 595.607 372.944 621.755 363.467L619.72 357.86C592.903 367.582 555.51 392.173 553.928 393.218L557.217 398.193Z" fill="#ED6E90"/>
<path d="M166.451 322L170.671 317.778C161.605 308.701 157.522 298.871 158.537 288.546C159.36 280.12 163.664 271.623 170.671 264.618L166.451 260.396C158.471 268.374 153.553 278.168 152.592 287.961C151.416 299.982 156.209 311.752 166.451 322Z" fill="#ED6E90"/>
<path d="M135.569 318.763L139.789 314.541C130.114 304.861 125.906 293.085 128.234 282.234C130.293 272.644 137.109 265 146.939 261.28L144.827 255.69C133.069 260.145 124.892 269.365 122.397 280.974C119.633 293.849 124.438 307.626 135.569 318.763Z" fill="#ED6E90"/>
<path d="M99.9914 309.495L104.211 305.273C96.0939 297.151 92.2144 285.859 93.8259 275.062C95.5508 263.579 103.352 253.612 115.802 247.001L113.003 241.728C98.8394 249.253 89.9344 260.772 87.929 274.178C86.025 286.838 90.5372 300.042 99.9914 309.495Z" fill="#ED6E90"/>
<path d="M51.986 281.512H57.9545C57.9545 260.784 70.8705 235.804 95.5564 228.149L93.7897 222.446C66.3463 230.955 51.986 258.598 51.986 281.512Z" fill="#ED6E90"/>
<path d="M28.2432 248.942C33.4 232.162 51.228 205.623 85.3383 212.658L86.538 206.806C53.0484 199.944 30.2426 222.123 22.5312 247.186L28.2432 248.942Z" fill="#ED6E90"/>
<path d="M78.5162 159.558L80.9454 154.1L74.4934 151.191C52.4934 141.207 27.5568 129.896 5.71783 138.758L7.96201 144.288C27.4374 136.399 50.1119 146.677 72.0224 156.626L78.5162 159.558Z" fill="#ED6E90"/>
<path d="M88.3706 127.251L92.5903 123.029C74.9891 105.424 30.3623 94.6096 13.3997 100.587L15.3693 106.219C30.2251 100.993 72.6972 111.563 88.3706 127.251Z" fill="#ED6E90"/>
<path d="M8.94706 197.573C19.9292 186.597 58.9515 182.513 78.9998 187.571L80.4622 181.784C60.7063 176.78 18.0192 180.047 4.72729 193.351L8.94706 197.573Z" fill="#ED6E90"/>
</svg>
